<svg width="45" height="40" viewBox="0 0 45 40" fill="none" xmlns="http://www.w3.org/2000/svg">
<path d="M6.40029 5.59842H38.4018C38.7756 5.59825 39.149 5.62196 39.5198 5.66943C39.3941 4.78716 39.0911 3.93948 38.6289 3.1775C38.1668 2.41552 37.5551 1.75502 36.8308 1.23583C36.1065 0.716634 35.2845 0.349496 34.4145 0.156551C33.5444 -0.036394 32.6443 -0.0511496 31.7685 0.113174L5.45025 4.60638H5.42025C3.76825 4.92229 2.29917 5.85696 1.31306 7.2195C2.79872 6.16278 4.57715 5.59607 6.40029 5.59842ZM38.4018 7.99853H6.40029C4.7034 8.00039 3.07653 8.6753 1.87665 9.87518C0.676762 11.0751 0.00185294 12.7019 0 14.3988V33.5997C0.00185294 35.2966 0.676762 36.9235 1.87665 38.1234C3.07653 39.3232 4.7034 39.9981 6.40029 40H38.4018C40.0987 39.9981 41.7255 39.3232 42.9254 38.1234C44.1253 36.9235 44.8002 35.2966 44.8021 33.5997V14.3988C44.8002 12.7019 44.1253 11.0751 42.9254 9.87518C41.7255 8.6753 40.0987 8.00039 38.4018 7.99853ZM33.6515 27.1994C33.0186 27.1994 32.3999 27.0117 31.8736 26.6601C31.3474 26.3085 30.9372 25.8087 30.695 25.2239C30.4528 24.6392 30.3894 23.9957 30.5129 23.375C30.6364 22.7542 30.9411 22.184 31.3887 21.7364C31.8362 21.2889 32.4065 20.9841 33.0272 20.8606C33.648 20.7371 34.2914 20.8005 34.8762 21.0427C35.4609 21.2849 35.9607 21.6951 36.3124 22.2214C36.664 22.7476 36.8517 23.3663 36.8517 23.9993C36.8517 24.848 36.5145 25.662 35.9144 26.2621C35.3142 26.8623 34.5003 27.1994 33.6515 27.1994Z" fill="#005985"/>
</svg>
