<svg width="60" height="60" viewBox="0 0 60 60" fill="none" xmlns="http://www.w3.org/2000/svg">
<path d="M30 0C13.4582 0 0 13.4582 0 30C0 46.5418 13.4582 60 30 60C46.5418 60 60 46.5418 60 30C60 13.4582 46.5418 0 30 0ZM45.613 19.9457L26.2284 43.0226C26.0157 43.2759 25.7511 43.4805 25.4525 43.6226C25.1539 43.7647 24.8283 43.8409 24.4976 43.8462H24.4587C24.1352 43.846 23.8154 43.7779 23.5199 43.6462C23.2245 43.5145 22.9601 43.3222 22.7437 43.0817L14.4361 33.851C14.2251 33.6272 14.0609 33.3635 13.9533 33.0754C13.8457 32.7873 13.7968 32.4805 13.8094 32.1732C13.822 31.8659 13.8959 31.5643 14.0268 31.2859C14.1576 31.0076 14.3428 30.7582 14.5714 30.5525C14.8001 30.3468 15.0675 30.1888 15.358 30.0879C15.6486 29.987 15.9563 29.9452 16.2633 29.9649C16.5702 29.9847 16.8701 30.0656 17.1453 30.2029C17.4205 30.3402 17.6655 30.5311 17.8659 30.7644L24.3981 38.0221L42.0793 16.9774C42.4759 16.5189 43.0371 16.2348 43.6414 16.1867C44.2458 16.1385 44.8448 16.3301 45.309 16.72C45.7732 17.11 46.0653 17.667 46.1222 18.2705C46.1791 18.8741 45.9962 19.4759 45.613 19.9457Z" fill="#9BFBB0"/>
</svg>
