<svg width="44" height="40" viewBox="0 0 44 40" fill="none" xmlns="http://www.w3.org/2000/svg">
<path d="M37.5 0H19.2073C17.5098 0.0018048 15.8824 0.672837 14.6821 1.86586C13.4818 3.05888 12.8067 4.67645 12.8049 6.36364V18.1818H30.3396L24.3167 12.1943C23.9881 11.8506 23.8076 11.3928 23.8138 10.9187C23.8199 10.4446 24.0121 9.99163 24.3494 9.65636C24.6867 9.32108 25.1425 9.13004 25.6195 9.12397C26.0965 9.1179 26.557 9.29728 26.9028 9.62386L36.0492 18.7148C36.392 19.0557 36.5845 19.518 36.5845 20C36.5845 20.482 36.392 20.9443 36.0492 21.2852L26.9028 30.3761C26.557 30.7027 26.0965 30.8821 25.6195 30.876C25.1425 30.87 24.6867 30.6789 24.3494 30.3436C24.0121 30.0084 23.8199 29.5554 23.8138 29.0813C23.8076 28.6072 23.9881 28.1494 24.3167 27.8057L30.3396 21.8182H12.8049V33.6364C12.8049 37.2784 16.6681 40 20.122 40H37.5C39.1975 39.9982 40.8249 39.3272 42.0252 38.1341C43.2255 36.9411 43.9006 35.3236 43.9024 33.6364V6.36364C43.9006 4.67645 43.2255 3.05888 42.0252 1.86586C40.8249 0.672837 39.1975 0.0018048 37.5 0ZM1.82927 18.1818C1.34412 18.1818 0.878835 18.3734 0.535781 18.7144C0.192726 19.0553 0 19.5178 0 20C0 20.4822 0.192726 20.9447 0.535781 21.2857C0.878835 21.6266 1.34412 21.8182 1.82927 21.8182H12.8049V18.1818H1.82927Z" fill="#005985"/>
</svg>
