<svg width="113" height="154" viewBox="0 0 113 154" fill="none" xmlns="http://www.w3.org/2000/svg">
<path d="M92.4545 56.4667H87.3182V30.8C87.3182 22.6313 84.0713 14.7972 78.2917 9.02111C72.5122 3.24499 64.6735 0 56.5 0C48.3265 0 40.4878 3.24499 34.7083 9.02111C28.9287 14.7972 25.6818 22.6313 25.6818 30.8V56.4667H20.5455C15.0983 56.4726 9.87593 58.6378 6.02419 62.4873C2.17246 66.3368 0.00594809 71.556 0 77V133.467C0.00594809 138.911 2.17246 144.13 6.02419 147.979C9.87593 151.829 15.0983 153.994 20.5455 154H92.4545C97.9017 153.994 103.124 151.829 106.976 147.979C110.828 144.13 112.994 138.911 113 133.467V77C112.994 71.556 110.828 66.3368 106.976 62.4873C103.124 58.6378 97.9017 56.4726 92.4545 56.4667ZM77.0455 56.4667H35.9545V30.8C35.9545 25.3542 38.1191 20.1315 41.9722 16.2807C45.8252 12.43 51.051 10.2667 56.5 10.2667C61.949 10.2667 67.1748 12.43 71.0278 16.2807C74.8808 20.1315 77.0455 25.3542 77.0455 30.8V56.4667Z" fill="#005985"/>
</svg>
