<svg width="48" height="40" viewBox="0 0 48 40" fill="none" xmlns="http://www.w3.org/2000/svg">
<path d="M12.7273 20C12.7273 19.5178 12.9188 19.0553 13.2598 18.7144C13.6008 18.3734 14.0632 18.1818 14.5455 18.1818H30.9091V6.36364C30.9091 2.72727 27.0693 0 23.6364 0H6.36364C4.67645 0.0018048 3.05888 0.672837 1.86586 1.86586C0.672837 3.05888 0.0018048 4.67645 0 6.36364V33.6364C0.0018048 35.3236 0.672837 36.9411 1.86586 38.1341C3.05888 39.3272 4.67645 39.9982 6.36364 40H24.5455C26.2326 39.9982 27.8502 39.3272 29.0432 38.1341C30.2363 36.9411 30.9073 35.3236 30.9091 33.6364V21.8182H14.5455C14.0632 21.8182 13.6008 21.6266 13.2598 21.2857C12.9188 20.9447 12.7273 20.4822 12.7273 20ZM46.7398 18.7148L37.6489 9.62386C37.3051 9.29728 36.8474 9.1179 36.3733 9.12397C35.8992 9.13004 35.4462 9.32108 35.1109 9.65636C34.7756 9.99163 34.5846 10.4446 34.5785 10.9187C34.5724 11.3928 34.7518 11.8506 35.0784 12.1943L41.0648 18.1818H30.9091V21.8182H41.0648L35.0784 27.8057C34.9025 27.9728 34.7618 28.1735 34.6646 28.3959C34.5675 28.6183 34.5158 28.8579 34.5127 29.1005C34.5096 29.3432 34.5551 29.584 34.6465 29.8088C34.738 30.0336 34.8735 30.2379 35.0451 30.4095C35.2167 30.5811 35.4209 30.7166 35.6457 30.808C35.8705 30.8995 36.1113 30.945 36.354 30.9419C36.5967 30.9387 36.8363 30.8871 37.0586 30.7899C37.281 30.6928 37.4817 30.5521 37.6489 30.3761L46.7398 21.2852C47.0805 20.9443 47.2719 20.482 47.2719 20C47.2719 19.518 47.0805 19.0557 46.7398 18.7148Z" fill="#005985"/>
</svg>
