<svg width="46" height="46" viewBox="0 0 46 46" fill="none" xmlns="http://www.w3.org/2000/svg">
<path d="M34.0347 9.37386L4.77314 38.7075L3 43L7.29252 41.2269L36.6261 11.9653L34.0347 9.37386ZM39.8896 3.52004L38.6219 4.78672L41.2133 7.37814L42.481 6.11039C42.8137 5.7775 43.0005 5.32615 43.0005 4.85554C43.0005 4.38493 42.8137 3.93358 42.481 3.60069L42.4004 3.52004C42.2355 3.35517 42.0398 3.22438 41.8244 3.13516C41.609 3.04593 41.3782 3 41.145 3C40.9118 3 40.681 3.04593 40.4656 3.13516C40.2502 3.22438 40.0545 3.35517 39.8896 3.52004Z" stroke="#005985" stroke-width="5" stroke-linecap="round" stroke-linejoin="round"/>
</svg>
