<svg width="52" height="40" viewBox="0 0 52 40" fill="none" xmlns="http://www.w3.org/2000/svg">
<path d="M37.0081 25.2297C33.9719 22.5308 30.0509 21.04 25.9887 21.04C21.9264 21.04 18.0054 22.5308 14.9692 25.2297C14.7127 25.4517 14.5028 25.7225 14.3518 26.0262C14.2007 26.33 14.1116 26.6608 14.0894 26.9994C14.0673 27.3379 14.1127 27.6775 14.2229 27.9983C14.3331 28.3192 14.5059 28.615 14.7314 28.8685C14.9569 29.122 15.2305 29.3281 15.5363 29.475C15.8421 29.6219 16.1741 29.7066 16.5129 29.7241C16.8517 29.7416 17.1906 29.6916 17.5099 29.5771C17.8293 29.4625 18.1227 29.2856 18.3731 29.0567C20.4715 27.1917 23.1813 26.1616 25.9887 26.1616C28.796 26.1616 31.5058 27.1917 33.6043 29.0567C34.1121 29.5081 34.7784 29.7392 35.4566 29.6993C36.1349 29.6594 36.7695 29.3517 37.2209 28.8439C37.6723 28.3361 37.9034 27.6698 37.8635 26.9915C37.8236 26.3133 37.5159 25.6786 37.0081 25.2273V25.2297Z" fill="#005985"/>
<path d="M25.9864 10.5218C19.1102 10.5123 12.4892 13.1258 7.47338 17.8294C7.21942 18.0569 7.01345 18.3328 6.86752 18.6409C6.7216 18.9491 6.63867 19.2832 6.6236 19.6238C6.60853 19.9645 6.66161 20.3046 6.77975 20.6245C6.89788 20.9443 7.07868 21.2373 7.31155 21.4863C7.54442 21.7354 7.82467 21.9354 8.13586 22.0747C8.44705 22.214 8.78292 22.2897 9.12377 22.2975C9.46463 22.3053 9.8036 22.2449 10.1208 22.12C10.438 21.995 10.7271 21.808 10.9711 21.5698C15.0438 17.7622 20.411 15.644 25.9864 15.644C31.5618 15.644 36.929 17.7622 41.0018 21.5698C41.2457 21.808 41.5348 21.995 41.852 22.12C42.1693 22.2449 42.5082 22.3053 42.8491 22.2975C43.1899 22.2897 43.5258 22.214 43.837 22.0747C44.1482 21.9354 44.4284 21.7354 44.6613 21.4863C44.8942 21.2373 45.075 20.9443 45.1931 20.6245C45.3112 20.3046 45.3643 19.9645 45.3493 19.6238C45.3342 19.2832 45.2513 18.9491 45.1053 18.6409C44.9594 18.3328 44.7534 18.0569 44.4995 17.8294C39.4836 13.1258 32.8627 10.5123 25.9864 10.5218Z" fill="#005985"/>
<path d="M51.0756 9.56567C44.1707 3.40486 35.2404 0 25.9866 0C16.7328 0 7.80252 3.40486 0.897659 9.56567C0.638154 9.78734 0.425571 10.0586 0.272403 10.3636C0.119235 10.6686 0.0285708 11.0012 0.00573801 11.3417C-0.0170948 11.6822 0.0283643 12.0239 0.139444 12.3466C0.250524 12.6693 0.424984 12.9665 0.652573 13.2209C0.880161 13.4752 1.15629 13.6815 1.46473 13.8276C1.77317 13.9737 2.1077 14.0567 2.44866 14.0716C2.78962 14.0866 3.13014 14.0333 3.45021 13.9148C3.77027 13.7963 4.06343 13.6151 4.31245 13.3817C10.2781 8.06118 17.9924 5.1209 25.986 5.1209C33.9796 5.1209 41.6939 8.06118 47.6596 13.3817C48.1659 13.8345 48.8314 14.0677 49.5097 14.0298C50.1879 13.992 50.8234 13.6862 51.2762 13.1799C51.729 12.6735 51.9622 12.008 51.9243 11.3297C51.8865 10.6515 51.5807 10.0161 51.0744 9.56323L51.0756 9.56567Z" fill="#005985"/>
<path d="M25.9866 40.0001C28.142 40.0001 29.8892 38.2528 29.8892 36.0974C29.8892 33.9421 28.142 32.1948 25.9866 32.1948C23.8312 32.1948 22.084 33.9421 22.084 36.0974C22.084 38.2528 23.8312 40.0001 25.9866 40.0001Z" fill="#005985"/>
</svg>
